<svg xmlns="http://www.w3.org/2000/svg" width="800" height="400" viewBox="0 0 800 400">
  <defs>
    <linearGradient id="bg" x1="0%" y1="0%" x2="100%" y2="100%">
      <stop offset="0%" style="stop-color:#0f172a"/>
      <stop offset="100%" style="stop-color:#1e3a5f"/>
    </linearGradient>
    <linearGradient id="accent" x1="0%" y1="0%" x2="100%" y2="0%">
      <stop offset="0%" style="stop-color:#3b82f6"/>
      <stop offset="100%" style="stop-color:#8b5cf6"/>
    </linearGradient>
  </defs>
  <rect width="800" height="400" fill="url(#bg)"/>
  <!-- Grid lines -->
  <g stroke="#1e40af" stroke-width="0.5" opacity="0.3">
    <line x1="0" y1="80" x2="800" y2="80"/>
    <line x1="0" y1="160" x2="800" y2="160"/>
    <line x1="0" y1="240" x2="800" y2="240"/>
    <line x1="0" y1="320" x2="800" y2="320"/>
    <line x1="160" y1="0" x2="160" y2="400"/>
    <line x1="320" y1="0" x2="320" y2="400"/>
    <line x1="480" y1="0" x2="480" y2="400"/>
    <line x1="640" y1="0" x2="640" y2="400"/>
  </g>
  <!-- Chart bars -->
  <rect x="80" y="220" width="50" height="100" fill="#3b82f6" opacity="0.7" rx="4"/>
  <rect x="160" y="180" width="50" height="140" fill="#3b82f6" opacity="0.7" rx="4"/>
  <rect x="240" y="140" width="50" height="180" fill="#3b82f6" opacity="0.7" rx="4"/>
  <rect x="320" y="160" width="50" height="160" fill="#8b5cf6" opacity="0.7" rx="4"/>
  <rect x="400" y="100" width="50" height="220" fill="#8b5cf6" opacity="0.7" rx="4"/>
  <rect x="480" y="120" width="50" height="200" fill="#8b5cf6" opacity="0.7" rx="4"/>
  <!-- Trend line -->
  <polyline points="105,260 185,200 265,170 345,180 425,120 505,140" fill="none" stroke="url(#accent)" stroke-width="3" stroke-linecap="round" stroke-linejoin="round"/>
  <!-- Dots on line -->
  <circle cx="105" cy="260" r="5" fill="#3b82f6"/>
  <circle cx="185" cy="200" r="5" fill="#3b82f6"/>
  <circle cx="265" cy="170" r="5" fill="#6366f1"/>
  <circle cx="345" cy="180" r="5" fill="#8b5cf6"/>
  <circle cx="425" cy="120" r="5" fill="#8b5cf6"/>
  <circle cx="505" cy="140" r="5" fill="#8b5cf6"/>
  <!-- Right panel - info box -->
  <rect x="580" y="80" width="180" height="240" rx="12" fill="#1e293b" opacity="0.9" stroke="#3b82f6" stroke-width="1"/>
  <text x="670" y="115" text-anchor="middle" font-family="monospace" font-size="13" fill="#94a3b8">REVENUE</text>
  <text x="670" y="145" text-anchor="middle" font-family="monospace" font-size="22" font-weight="bold" fill="#22c55e">+24.8%</text>
  <line x1="595" y1="165" x2="745" y2="165" stroke="#334155" stroke-width="1"/>
  <text x="595" y="190" font-family="monospace" font-size="11" fill="#64748b">Licenses Sold</text>
  <text x="745" y="190" text-anchor="end" font-family="monospace" font-size="11" fill="#e2e8f0">1,248</text>
  <text x="595" y="215" font-family="monospace" font-size="11" fill="#64748b">Active Users</text>
  <text x="745" y="215" text-anchor="end" font-family="monospace" font-size="11" fill="#e2e8f0">836</text>
  <text x="595" y="240" font-family="monospace" font-size="11" fill="#64748b">Stripe MRR</text>
  <text x="745" y="240" text-anchor="end" font-family="monospace" font-size="11" fill="#22c55e">$9,420</text>
  <text x="595" y="265" font-family="monospace" font-size="11" fill="#64748b">EC2 Uptime</text>
  <text x="745" y="265" text-anchor="end" font-family="monospace" font-size="11" fill="#22c55e">99.9%</text>
  <text x="595" y="290" font-family="monospace" font-size="11" fill="#64748b">Deploy</text>
  <text x="745" y="290" text-anchor="end" font-family="monospace" font-size="11" fill="#3b82f6">GitHub CI/CD</text>
  <!-- Title -->
  <text x="400" y="370" text-anchor="middle" font-family="system-ui, sans-serif" font-size="18" font-weight="bold" fill="white">AA Trading</text>
  <text x="400" y="392" text-anchor="middle" font-family="system-ui, sans-serif" font-size="12" fill="#94a3b8">Software License Platform · aatrading.us</text>
</svg>
